<?xml version="1.0" encoding="utf-8" ?>
<svg baseProfile="full" height="261.33333333333337px" version="1.1" viewBox="0 0 652.0 261.33333333333337" width="652.0px" xmlns="http://www.w3.org/2000/svg" xmlns:ev="http://www.w3.org/2001/xml-events" xmlns:xlink="http://www.w3.org/1999/xlink"><defs><style type="text/css"><![CDATA[@font-face{ font-family: "Emmentaler-26"; src: url("emmentaler-26.otf");}]]></style></defs><text fill="black" font-family="Emmentaler-26" font-size="64" x="92.0" y="140.66666666666669"></text><text fill="black" font-family="Emmentaler-26" font-size="64" x="162.0" y="130.66666666666669"></text><text fill="black" font-family="Emmentaler-26" font-size="64" x="147.0" y="130.66666666666669"></text><text fill="black" font-family="Emmentaler-26" font-size="64" x="232.0" y="120.66666666666667"></text><text fill="black" font-family="Emmentaler-26" font-size="64" x="302.0" y="110.66666666666667"></text><text fill="black" font-family="Emmentaler-26" font-size="64" x="372.0" y="100.66666666666667"></text><text fill="black" font-family="Emmentaler-26" font-size="64" x="442.0" y="90.66666666666667"></text><text fill="black" font-family="Emmentaler-26" font-size="64" x="427.0" y="90.66666666666667"></text><text fill="black" font-family="Emmentaler-26" font-size="64" x="512.0" y="80.66666666666667"></text><text fill="black" font-family="Emmentaler-26" font-size="64" x="582.0" y="70.66666666666667"></text><text fill="black" font-family="Emmentaler-26" font-size="64" x="20" y="110.66666666666667"></text><line stroke="black" x1="20" x2="632.0" y1="50.66666666666667" y2="50.66666666666667" /><line stroke="black" x1="20" x2="632.0" y1="70.66666666666667" y2="70.66666666666667" /><line stroke="black" x1="20" x2="632.0" y1="90.66666666666667" y2="90.66666666666667" /><line stroke="black" x1="20" x2="632.0" y1="110.66666666666667" y2="110.66666666666667" /><line stroke="black" x1="20" x2="632.0" y1="130.66666666666669" y2="130.66666666666669" /><line stroke="black" x1="104.5" x2="309.5" y1="30.666666666666668" y2="30.666666666666668" /><line stroke="black" x1="104.5" x2="104.5" y1="45.66666666666667" y2="30.666666666666668" /><line stroke="black" x1="309.5" x2="309.5" y1="45.66666666666667" y2="30.666666666666668" /><g><rect fill="none" height="30.666666666666668" width="205.0" x="104.5" y="0" /><text dominant-baseline="middle" fill="black" font-size="24" text-anchor="middle" x="207.0" y="15.333333333333334">جنس الأصل
</text></g><line stroke="black" x1="314.5" x2="519.5" y1="145.66666666666669" y2="145.66666666666669" /><line stroke="black" x1="314.5" x2="314.5" y1="130.66666666666669" y2="145.66666666666669" /><line stroke="black" x1="519.5" x2="519.5" y1="130.66666666666669" y2="145.66666666666669" /><g><rect fill="none" height="12.0" width="205.0" x="314.5" y="157.66666666666669" /><text dominant-baseline="middle" fill="black" font-size="24" text-anchor="middle" x="417.0" y="163.66666666666669">جنس الفرع
</text></g><line stroke="black" x1="524.5" x2="589.5" y1="30.666666666666668" y2="30.666666666666668" /><line stroke="black" x1="524.5" x2="524.5" y1="45.66666666666667" y2="30.666666666666668" /><line stroke="black" x1="589.5" x2="589.5" y1="45.66666666666667" y2="30.666666666666668" /><g><rect fill="none" height="30.666666666666668" width="65.0" x="524.5" y="0" /><text dominant-baseline="middle" fill="black" font-size="24" text-anchor="middle" x="557.0" y="15.333333333333334">بعد مكّمل</text></g><g fill="none" fill-opacity="0" stroke="black" stroke-width="3"><path d="M 104.500000,191.333333 a 5.000000,5.000000 0.000000 0,0 65.000000,0.000000" fill="none" stroke="black" stroke-width="3" /></g><g><rect fill="none" height="40.00000000000003" width="65.0" x="104.5" y="221.33333333333334" /><text dominant-baseline="middle" fill="black" font-size="24" text-anchor="middle" x="137.0" y="241.33333333333337">3/4</text></g><g fill="none" fill-opacity="0" stroke="black" stroke-width="3"><path d="M 174.500000,191.333333 a 5.000000,5.000000 0.000000 0,0 65.000000,0.000000" fill="none" stroke="black" stroke-width="3" /></g><g><rect fill="none" height="40.00000000000003" width="65.0" x="174.5" y="221.33333333333334" /><text dominant-baseline="middle" fill="black" font-size="24" text-anchor="middle" x="207.0" y="241.33333333333337">3/4</text></g><line stroke="black" stroke-width="3" x1="244.5" x2="244.5" y1="191.33333333333334" y2="221.33333333333334" /><line stroke="black" stroke-width="3" x1="309.5" x2="309.5" y1="191.33333333333334" y2="221.33333333333334" /><line stroke="black" stroke-width="3" x1="244.5" x2="309.5" y1="221.33333333333334" y2="221.33333333333334" /><g><rect fill="none" height="40.00000000000003" width="65.0" x="244.5" y="221.33333333333334" /><text dominant-baseline="middle" fill="black" font-size="24" text-anchor="middle" x="277.0" y="241.33333333333337">1</text></g><line stroke="black" stroke-width="3" x1="314.5" x2="314.5" y1="191.33333333333334" y2="221.33333333333334" /><line stroke="black" stroke-width="3" x1="379.5" x2="379.5" y1="191.33333333333334" y2="221.33333333333334" /><line stroke="black" stroke-width="3" x1="314.5" x2="379.5" y1="221.33333333333334" y2="221.33333333333334" /><g><rect fill="none" height="40.00000000000003" width="65.0" x="314.5" y="221.33333333333334" /><text dominant-baseline="middle" fill="black" font-size="24" text-anchor="middle" x="347.0" y="241.33333333333337">1</text></g><line stroke="black" stroke-width="3" x1="384.5" x2="417.0" y1="191.33333333333334" y2="221.33333333333334" /><line stroke="black" stroke-width="3" x1="449.5" x2="417.0" y1="191.33333333333334" y2="221.33333333333334" /><g><rect fill="none" height="40.00000000000003" width="65.0" x="384.5" y="221.33333333333334" /><text dominant-baseline="middle" fill="black" font-size="24" text-anchor="middle" x="417.0" y="241.33333333333337">1/2</text></g><line stroke="black" stroke-width="3" x1="454.5" x2="454.5" y1="191.33333333333334" y2="221.33333333333334" /><line stroke="black" stroke-width="3" x1="519.5" x2="519.5" y1="191.33333333333334" y2="221.33333333333334" /><line stroke="black" stroke-width="3" x1="454.5" x2="519.5" y1="221.33333333333334" y2="221.33333333333334" /><g><rect fill="none" height="40.00000000000003" width="65.0" x="454.5" y="221.33333333333334" /><text dominant-baseline="middle" fill="black" font-size="24" text-anchor="middle" x="487.0" y="241.33333333333337">1</text></g><line stroke="black" stroke-width="3" x1="524.5" x2="524.5" y1="191.33333333333334" y2="221.33333333333334" /><line stroke="black" stroke-width="3" x1="589.5" x2="589.5" y1="191.33333333333334" y2="221.33333333333334" /><line stroke="black" stroke-width="3" x1="524.5" x2="589.5" y1="221.33333333333334" y2="221.33333333333334" /><g><rect fill="none" height="40.00000000000003" width="65.0" x="524.5" y="221.33333333333334" /><text dominant-baseline="middle" fill="black" font-size="24" text-anchor="middle" x="557.0" y="241.33333333333337">1</text></g></svg>